<?xml version="1.0" encoding="utf-8"?>
<!-- Generator: Adobe Illustrator 17.1.0, SVG Export Plug-In . SVG Version: 6.00 Build 0)  -->
<!DOCTYPE svg PUBLIC "-//W3C//DTD SVG 1.1//EN" "http://www.w3.org/Graphics/SVG/1.1/DTD/svg11.dtd" [
	<!ENTITY ns_flows "http://ns.adobe.com/Flows/1.0/">
	<!ENTITY ns_extend "http://ns.adobe.com/Extensibility/1.0/">
	<!ENTITY ns_ai "http://ns.adobe.com/AdobeIllustrator/10.0/">
	<!ENTITY ns_graphs "http://ns.adobe.com/Graphs/1.0/">
]>
<svg version="1.1" id="Layer_1" xmlns:x="&ns_extend;" xmlns:i="&ns_ai;" xmlns:graph="&ns_graphs;"
	 xmlns="http://www.w3.org/2000/svg" xmlns:xlink="http://www.w3.org/1999/xlink" xmlns:a="http://ns.adobe.com/AdobeSVGViewerExtensions/3.0/"
	 x="0px" y="0px" viewBox="0 0 158.5 151.9" enable-background="new 0 0 158.5 151.9" xml:space="preserve">
<g>
	<path fill="none" stroke="#084DF7" stroke-width="3" stroke-linecap="round" stroke-linejoin="round" d="M27.3,21.94
		c0.25,0.35,16.64-12.32,16.96-11.87c0.49,0.7-33,29.74-32.33,30.68c1.16,1.66,52.55-39,53.59-37.52
		C66.69,4.92,4.59,54.69,6.05,56.78C7.93,59.46,83.7,0.23,84.73,1.7c1.56,2.23-80.17,60.94-78.9,62.76
		c1.8,2.57,88.49-64.86,89.85-62.92C97.75,4.49-0.23,72.27,1.52,74.77c1.44,2.05,98.77-71.61,99.92-69.97
		C103.83,8.21,1.03,85.15,3.19,88.23c2.27,3.25,109.3-80.86,111.33-77.96C116.54,13.16,2.06,94.12,4.57,97.71
		c2.67,3.81,115.59-86.05,117.99-82.62c1.42,2.03-116.63,86.48-114.75,89.16c2.22,3.17,124.1-92.6,126.78-88.77
		c1.6,2.29-129.89,92.64-127.5,96.06c2.97,4.23,128.05-94.07,130.12-91.11c2.5,3.58-120.18,91.36-118.01,94.46
		c2.68,3.83,118.48-87.34,120.53-84.4c2.18,3.11-122.1,93.07-120.6,95.21c2.69,3.84,124.02-91.02,125.99-88.22
		c1.33,1.9-123.54,87.72-120.62,91.89c1.61,2.31,118.54-87.81,120.8-84.58c2.41,3.44-113.08,88.13-110.97,91.15
		c2.32,3.31,117.72-86.98,119.86-83.92c1.52,2.18-114.68,86.88-113.41,88.7c1.79,2.56,112.12-81.18,113.38-79.39
		c2.28,3.26-101.87,81.03-99.51,84.41c1.95,2.79,99.52-74.55,101.8-71.28c1.28,1.83-95.84,72.13-94.68,73.78
		c2.16,3.08,91.89-67.26,93.26-65.3c1.8,2.56-82.74,66.09-81.83,67.4c1.68,2.4,82.09-61.05,83.77-58.65
		c1.42,2.03-63.97,56.54-62.84,58.15c0.92,1.31,49.24-35.72,49.82-34.89c0.83,1.18-34.41,29.59-34.02,30.15
		c0.26,0.37,18.61-13.82,18.98-13.29"/>
</g>
</svg>
