<?xml version="1.0" encoding="utf-8"?>
<!-- Generator: Adobe Illustrator 17.1.0, SVG Export Plug-In . SVG Version: 6.00 Build 0)  -->
<!DOCTYPE svg PUBLIC "-//W3C//DTD SVG 1.1//EN" "http://www.w3.org/Graphics/SVG/1.1/DTD/svg11.dtd">
<svg version="1.1" id="Capa_1" xmlns="http://www.w3.org/2000/svg" xmlns:xlink="http://www.w3.org/1999/xlink" x="0px" y="0px"
	 viewBox="-320 326.6 100 100" enable-background="new -320 326.6 100 100" xml:space="preserve">
<g id="Capa_16">
	<g>
		<polygon points="-290.4,386.2 -298.2,402.4 -287.1,402.4 -283,386.2 		"/>
		<polygon points="-301.1,386.2 -312.9,402.4 -302.1,402.4 -293.9,386.2 		"/>
		<polygon points="-239.8,386.2 -247,386.2 -238.8,402.4 -228,402.4 		"/>
		<polygon points="-257.9,386.2 -253.7,402.4 -242.7,402.4 -250.5,386.2 		"/>
		<polygon points="-261,393.9 -267.2,394 -267.3,386.2 -268.8,386.2 -268.6,402.4 -257.4,402.4 -261,387.2 		"/>
		<polygon points="-279.6,386.2 -280.1,388.2 -278.3,386.2 		"/>
		<polygon points="-281.2,392.7 -283.4,402.4 -272.3,402.4 -272.1,388.7 -278.2,395.4 		"/>
		<path d="M-264.9,356.2c1.9-1.4,2.4-4.1,1-6c-1.4-1.9-4.1-2.4-6-1c-1.9,1.4-2.4,4.1-1,6C-269.5,357.1-266.9,357.6-264.9,356.2z"/>
		<path d="M-269.1,377.2c0,0,0.1,0,0.1,0l2.4,4.4l0.1,11.5l4.5-0.1L-262,381c0-0.4-0.1-0.7-0.3-1.1l-4.1-7.4l0.8-5.3l0.4,0.6
			c0.2,0.3,0.4,0.5,0.8,0.7l7,2.8l1.1-2.3l-6-3.5l-3.1-5.2c-0.5-0.8-1.4-1.4-2.5-1.6c-0.9-0.1-1.8,0.1-2.5,0.6l0,0
			c0,0-0.3,0.2-0.4,0.3l-6.8,5.3c-0.3,0.3-0.6,0.6-0.7,1.1l-1.1,8.3l2.5,0.5l2.1-7.4l2.2-1.7l-1.2,7.6c-0.1,0.4,0,0.7,0,1.1l0.4,7.8
			l-8.3,9.1l3.4,3.1l8.9-9.8c0.4-0.4,0.6-1,0.6-1.6L-269.1,377.2z"/>
	</g>
</g>
</svg>
